<?xml version="1.0" encoding="utf-8"?>
<!-- Generator: Adobe Illustrator 22.1.0, SVG Export Plug-In . SVG Version: 6.00 Build 0)  -->
<svg version="1.1" xmlns="http://www.w3.org/2000/svg" xmlns:xlink="http://www.w3.org/1999/xlink" x="0px" y="0px"
	 viewBox="0 0 612 123" style="enable-background:new 0 0 612 123;" xml:space="preserve">
<style type="text/css">
	.st0{display:none;fill:#1A1A1A;}
	.st1{fill:#F2F2F2;}
	.st2{display:none;}
	.st3{display:inline;}
	.st4{fill:#3187BC;}
</style>
<g id="White_Text">
	<rect class="st0" width="612" height="123"/>
	<g id="Text">
		<path class="st1" d="M455.4,97.2c-3.3,0-6.5,0-10,0c-2.4-14.5-4.9-29.1-7.3-43.7c-0.1,0-0.3,0-0.4,0c0,14.5,0,29,0,43.7
			c-3.1,0-6,0-9,0c0-22.1,0-44,0-66.1c4.8,0,9.4,0,14.4,0c2.5,15,4.9,30,7.4,45.1c0.2,0,0.3,0,0.5,0c2.3-15,4.6-30,6.8-45.1
			c4.9,0,9.5,0,14.3,0c0,22,0,43.9,0,66.1c-3,0-6.2,0-9.6,0c0-14.3,0-28.8,0-43.3c-0.2,0-0.3,0-0.5,0
			C459.8,68.2,457.7,82.7,455.4,97.2z"/>
		<path class="st1" d="M197.9,70.7c0,8.7,0,17.5,0,26.5c-3.6,0-6.9,0-10.4,0c0-21.9,0-43.9,0-66.2c2.8,0,5.6,0,8.4,0
			c3.9,0.1,7.9,0,11.8,0.4c6,0.7,9.8,4.4,10.5,10.3c0.5,4.1,0.5,8.2,0.3,12.3c-0.2,4.5-2,8.4-6.3,10.8c5.3,3,6.4,7.9,6.5,13.2
			c0.1,6.4,0.2,12.7,0.3,19.2c-2.9,0-6.3,0-10.2,0c-0.2-2.8-0.5-5.6-0.6-8.4c-0.1-3.3,0-6.6,0-9.9C208.2,71.7,205.6,69.5,197.9,70.7
			z M198,40.8c0,6.7,0,13.2,0,20c1.3,0,2.5,0,3.7,0c4.4-0.2,6.1-1.8,6.3-6.2c0.1-1.8,0.1-3.6,0.1-5.3c0-8-1.4-9.3-9.5-8.8
			C198.5,40.5,198.4,40.7,198,40.8z"/>
		<path class="st1" d="M340.7,64.3c0,6,0,12,0,18c-0.1,5.9-1.7,11.1-7.3,13.9c-6.1,3-12.4,2.9-18.3-0.7c-4.5-2.8-6-7.5-6-12.4
			c-0.2-12.6-0.2-25.2,0-37.7c0.1-5.8,2.1-11.1,7.9-13.5c6.3-2.7,12.7-2.6,18.4,1.6c3.9,2.9,5.2,7.3,5.2,11.9
			C340.8,51.7,340.7,58,340.7,64.3z M319.6,64.1c0,6.2,0,12.4,0,18.6c0,3.8,1.5,5.6,4.7,5.9c3.8,0.4,5.9-1.9,6-6.7
			c0-11.7,0-23.5,0-35.2c0-1.2-0.1-2.5-0.5-3.6c-0.6-2-2-3.1-4.1-3.2c-3.8-0.3-5.9,1.6-6,5.7C319.5,51.7,319.6,57.9,319.6,64.1z"/>
		<path class="st1" d="M386.9,31.1c3.3,0,6.5,0,10.2,0c0,1.2,0,2.3,0,3.4c0,15.2,0,30.5,0,45.7c0,1.4,0.1,2.8,0.3,4.2
			c0.6,2.9,2.5,4.4,5.4,4.3c2.9-0.1,4.6-1.7,4.9-4.8c0.1-1,0.1-2.1,0.1-3.1c0-15.4,0-30.8,0-46.3c0-1,0-2.1,0-3.3c3.3,0,6.4,0,10,0
			c0,0.9,0,1.9,0,2.9c0,15.7,0,31.4,0,47.1c0,1.8-0.2,3.6-0.5,5.3c-1.4,7.9-7.5,12.4-16,11.7c-9.6-0.7-14.4-5.4-14.6-15.1
			c-0.3-16.8-0.1-33.6-0.2-50.5C386.7,32.2,386.8,31.7,386.9,31.1z"/>
		<path class="st1" d="M145.6,31.1c3.4,0,6.6,0,10.2,0c0,1.3,0,2.4,0,3.5c0,14.9,0,29.9,0,44.8c0,1.4,0.1,2.8,0.2,4.2
			c0.4,3.3,2,4.9,5,5c3.1,0.1,5-1.5,5.5-4.8c0.2-1,0.2-2.1,0.2-3.1c0-15.3,0-30.6,0-45.9c0-1.1,0-2.2,0-3.6c3.3,0,6.5,0,9.9,0
			c0,1,0,1.9,0,2.8c0,16,0.1,31.9-0.1,47.9c0,2.8-0.6,5.8-1.7,8.5c-2.1,5.4-7.6,8.2-14.3,7.9c-9.5-0.4-14.9-5.7-15-15.1
			c-0.2-17-0.1-34-0.1-51C145.4,32,145.5,31.7,145.6,31.1z"/>
		<path class="st1" d="M291.7,31.1c3.3,0,6.2,0,9.6,0c-0.7,4.7-1.3,9.2-2,13.7c-2.6,16.7-5.2,33.4-7.7,50.1
			c-0.3,1.9-0.9,2.5-2.8,2.5c-4.3-0.1-8.6,0-13.3,0c-3.4-22-6.8-44-10.2-66.4c3.4,0,6.5-0.1,9.5,0.1c0.5,0,1.3,1.2,1.4,2
			c1.8,11.8,3.5,23.6,5.2,35.4c0.7,4.9,1.5,9.8,2.7,14.6C286.6,65.8,289.1,48.6,291.7,31.1z"/>
		<path class="st1" d="M106.5,31.4c6.8,0,13.3-0.4,19.8,0.1c5.9,0.5,10.1,5.2,10.5,11.5c0.4,5.8,0.5,11.6,0,17.4
			c-0.5,6.6-4.8,10.7-11.4,11.7c-2.8,0.4-5.6,0.4-8.7,0.6c0,8.1,0,16.2,0,24.5c-3.6,0-6.8,0-10.3,0
			C106.5,75.3,106.5,53.3,106.5,31.4z M116.9,40.5c0,7.5,0,14.8,0,22.4c1.7,0,3.3,0,4.9,0c3.1-0.1,4.8-1.4,4.9-4.6
			c0.2-4.4,0.2-8.8,0-13.2c-0.1-2.5-1.4-4.3-4.1-4.6C120.7,40.4,118.9,40.5,116.9,40.5z"/>
		<path class="st1" d="M484,31.1c9.4,0,18.7,0,28.1,0c0,3.1,0,6.1,0,9.3c-5.9,0-11.7,0-17.7,0c0,6.2,0,12.2,0,18.4
			c4.7,0,9.3,0,14.1,0c0,3.3,0,6.3,0,9.6c-4.7,0-9.3,0-14,0c0,6.5,0,12.7,0,19.3c5.8,0,11.6,0,17.6,0c0,3.3,0,6.3,0,9.5
			c-9.3,0-18.6,0-28,0C484,75.3,484,53.3,484,31.1z"/>
		<path class="st1" d="M229.6,31.1c9.3,0,18.5,0,27.9,0c0,3,0,6,0,9.2c-5.6,0-11.4,0-17.4,0c0,6.3,0,12.4,0,18.6c4.6,0,9.1,0,13.8,0
			c0,3.1,0,6.1,0,9.4c-4.5,0-9,0-13.8,0c0,6.6,0,12.9,0,19.4c5.8,0,11.5,0,17.4,0c0,3.2,0,6.2,0,9.5c-9.2,0-18.5,0-27.9,0
			C229.6,75.3,229.6,53.3,229.6,31.1z"/>
		<path class="st1" d="M361.6,87.8c6,0,11.5,0,17.2,0c0,3.2,0,6.1,0,9.3c-9,0-18.1,0-27.3,0c0-21.9,0-43.9,0-66c3.3,0,6.6,0,10.1,0
			C361.6,50,361.6,68.7,361.6,87.8z"/>
	</g>
	<g id="Waves">
		<rect x="528" y="31" class="st1" width="10" height="66"/>
		<rect x="544" y="47" class="st1" width="10" height="50"/>
		<rect x="560" y="60" class="st1" width="10" height="37"/>
		<rect x="575" y="40" class="st1" width="10" height="57"/>
		<rect x="589" y="78" class="st1" width="10" height="19"/>
		<rect x="81" y="31" transform="matrix(-1 -4.492907e-11 4.492907e-11 -1 172 128)" class="st1" width="10" height="66"/>
		<rect x="65" y="47" transform="matrix(-1 -4.474744e-11 4.474744e-11 -1 140 144)" class="st1" width="10" height="50"/>
		<rect x="49" y="60" transform="matrix(-1 -4.483803e-11 4.483803e-11 -1 108 157)" class="st1" width="10" height="37"/>
		<rect x="34" y="40" transform="matrix(-1 -4.492907e-11 4.492907e-11 -1 78 137)" class="st1" width="10" height="57"/>
		<rect x="20" y="78" transform="matrix(-1 -4.492907e-11 4.492907e-11 -1 50 175)" class="st1" width="10" height="19"/>
	</g>
</g>
<g id="Black_Text" class="st2">
	<g id="Top_1_" class="st3">
		<g>
			<path d="M455.4-41.8c-3.3,0-6.5,0-10,0c-2.4-14.5-4.9-29.1-7.3-43.7c-0.1,0-0.3,0-0.4,0c0,14.5,0,29,0,43.7c-3.1,0-6,0-9,0
				c0-22.1,0-44,0-66.1c4.8,0,9.4,0,14.4,0c2.5,15,4.9,30,7.4,45.1c0.2,0,0.3,0,0.5,0c2.3-15,4.6-30,6.8-45.1c4.9,0,9.5,0,14.3,0
				c0,22,0,43.9,0,66.1c-3,0-6.2,0-9.6,0c0-14.3,0-28.8,0-43.3c-0.2,0-0.3,0-0.5,0C459.8-70.8,457.7-56.3,455.4-41.8z"/>
			<path d="M197.9-68.3c0,8.7,0,17.5,0,26.5c-3.6,0-6.9,0-10.4,0c0-21.9,0-43.9,0-66.2c2.8,0,5.6,0,8.4,0c3.9,0.1,7.9,0,11.8,0.4
				c6,0.7,9.8,4.4,10.5,10.3c0.5,4.1,0.5,8.2,0.3,12.3c-0.2,4.5-2,8.4-6.3,10.8c5.3,3,6.4,7.9,6.5,13.2c0.1,6.4,0.2,12.7,0.3,19.2
				c-2.9,0-6.3,0-10.2,0c-0.2-2.8-0.5-5.6-0.6-8.4c-0.1-3.3,0-6.6,0-9.9C208.2-67.3,205.6-69.5,197.9-68.3z M198-98.2
				c0,6.7,0,13.2,0,20c1.3,0,2.5,0,3.7,0c4.4-0.2,6.1-1.8,6.3-6.2c0.1-1.8,0.1-3.6,0.1-5.3c0-8-1.4-9.3-9.5-8.8
				C198.5-98.5,198.4-98.3,198-98.2z"/>
			<path d="M340.7-74.7c0,6,0,12,0,18c-0.1,5.9-1.7,11.1-7.3,13.9c-6.1,3-12.4,2.9-18.3-0.7c-4.5-2.8-6-7.5-6-12.4
				c-0.2-12.6-0.2-25.2,0-37.7c0.1-5.8,2.1-11.1,7.9-13.5c6.3-2.7,12.7-2.6,18.4,1.6c3.9,2.9,5.2,7.3,5.2,11.9
				C340.8-87.3,340.7-81,340.7-74.7z M319.6-74.9c0,6.2,0,12.4,0,18.6c0,3.8,1.5,5.6,4.7,5.9c3.8,0.4,5.9-1.9,6-6.7
				c0-11.7,0-23.5,0-35.2c0-1.2-0.1-2.5-0.5-3.6c-0.6-2-2-3.1-4.1-3.2c-3.8-0.3-5.9,1.6-6,5.7C319.5-87.3,319.6-81.1,319.6-74.9z"/>
			<path d="M386.9-107.9c3.3,0,6.5,0,10.2,0c0,1.2,0,2.3,0,3.4c0,15.2,0,30.5,0,45.7c0,1.4,0.1,2.8,0.3,4.2c0.6,2.9,2.5,4.4,5.4,4.3
				c2.9-0.1,4.6-1.7,4.9-4.8c0.1-1,0.1-2.1,0.1-3.1c0-15.4,0-30.8,0-46.3c0-1,0-2.1,0-3.3c3.3,0,6.4,0,10,0c0,0.9,0,1.9,0,2.9
				c0,15.7,0,31.4,0,47.1c0,1.8-0.2,3.6-0.5,5.3c-1.4,7.9-7.5,12.4-16,11.7c-9.6-0.7-14.4-5.4-14.6-15.1
				c-0.3-16.8-0.1-33.6-0.2-50.5C386.7-106.8,386.8-107.3,386.9-107.9z"/>
			<path d="M145.6-107.9c3.4,0,6.6,0,10.2,0c0,1.3,0,2.4,0,3.5c0,14.9,0,29.9,0,44.8c0,1.4,0.1,2.8,0.2,4.2c0.4,3.3,2,4.9,5,5
				c3.1,0.1,5-1.5,5.5-4.8c0.2-1,0.2-2.1,0.2-3.1c0-15.3,0-30.6,0-45.9c0-1.1,0-2.2,0-3.6c3.3,0,6.5,0,9.9,0c0,1,0,1.9,0,2.8
				c0,16,0.1,31.9-0.1,47.9c0,2.8-0.6,5.8-1.7,8.5c-2.1,5.4-7.6,8.2-14.3,7.9c-9.5-0.4-14.9-5.7-15-15.1c-0.2-17-0.1-34-0.1-51
				C145.4-107,145.5-107.3,145.6-107.9z"/>
			<path d="M291.7-107.9c3.3,0,6.2,0,9.6,0c-0.7,4.7-1.3,9.2-2,13.7c-2.6,16.7-5.2,33.4-7.7,50.1c-0.3,1.9-0.9,2.5-2.8,2.5
				c-4.3-0.1-8.6,0-13.3,0c-3.4-22-6.8-44-10.2-66.4c3.4,0,6.5-0.1,9.5,0.1c0.5,0,1.3,1.2,1.4,2c1.8,11.8,3.5,23.6,5.2,35.4
				c0.7,4.9,1.5,9.8,2.7,14.6C286.6-73.2,289.1-90.4,291.7-107.9z"/>
			<path d="M106.5-107.6c6.8,0,13.3-0.4,19.8,0.1c5.9,0.5,10.1,5.2,10.5,11.5c0.4,5.8,0.5,11.6,0,17.4c-0.5,6.6-4.8,10.7-11.4,11.7
				c-2.8,0.4-5.6,0.4-8.7,0.6c0,8.1,0,16.2,0,24.5c-3.6,0-6.8,0-10.3,0C106.5-63.7,106.5-85.7,106.5-107.6z M116.9-98.5
				c0,7.5,0,14.8,0,22.4c1.7,0,3.3,0,4.9,0c3.1-0.1,4.8-1.4,4.9-4.6c0.2-4.4,0.2-8.8,0-13.2c-0.1-2.5-1.4-4.3-4.1-4.6
				C120.7-98.6,118.9-98.5,116.9-98.5z"/>
			<path d="M484-107.9c9.4,0,18.7,0,28.1,0c0,3.1,0,6.1,0,9.3c-5.9,0-11.7,0-17.7,0c0,6.2,0,12.2,0,18.4c4.7,0,9.3,0,14.1,0
				c0,3.3,0,6.3,0,9.6c-4.7,0-9.3,0-14,0c0,6.5,0,12.7,0,19.3c5.8,0,11.6,0,17.6,0c0,3.3,0,6.3,0,9.5c-9.3,0-18.6,0-28,0
				C484-63.7,484-85.7,484-107.9z"/>
			<path d="M229.6-107.9c9.3,0,18.5,0,27.9,0c0,3,0,6,0,9.2c-5.6,0-11.4,0-17.4,0c0,6.3,0,12.4,0,18.6c4.6,0,9.1,0,13.8,0
				c0,3.1,0,6.1,0,9.4c-4.5,0-9,0-13.8,0c0,6.6,0,12.9,0,19.4c5.8,0,11.5,0,17.4,0c0,3.2,0,6.2,0,9.5c-9.2,0-18.5,0-27.9,0
				C229.6-63.7,229.6-85.7,229.6-107.9z"/>
			<path d="M361.6-51.2c6,0,11.5,0,17.2,0c0,3.2,0,6.1,0,9.3c-9,0-18.1,0-27.3,0c0-21.9,0-43.9,0-66c3.3,0,6.6,0,10.1,0
				C361.6-89,361.6-70.3,361.6-51.2z"/>
		</g>
		<rect x="528" y="-108" width="10" height="66"/>
		<rect x="544" y="-92" width="10" height="50"/>
		<rect x="560" y="-79" width="10" height="37"/>
		<rect x="575" y="-99" width="10" height="57"/>
		<rect x="589" y="-61" width="10" height="19"/>
		<rect x="81" y="-108" transform="matrix(-1 -4.492907e-11 4.492907e-11 -1 172 -150)" width="10" height="66"/>
		<rect x="65" y="-92" transform="matrix(-1 -4.483803e-11 4.483803e-11 -1 140 -134)" width="10" height="50"/>
		<rect x="49" y="-79" transform="matrix(-1 -4.483803e-11 4.483803e-11 -1 108 -121)" width="10" height="37"/>
		<rect x="34" y="-99" transform="matrix(-1 -4.492907e-11 4.492907e-11 -1 78 -141)" width="10" height="57"/>
		<rect x="20" y="-61" transform="matrix(-1 -4.492907e-11 4.492907e-11 -1 50 -103)" width="10" height="19"/>
	</g>
</g>
<g id="Full_Color" class="st2">
	<g id="Top" class="st3">
		<g>
			<path d="M455.4-180.8c-3.3,0-6.5,0-10,0c-2.4-14.5-4.9-29.1-7.3-43.7c-0.1,0-0.3,0-0.4,0c0,14.5,0,29,0,43.7c-3.1,0-6,0-9,0
				c0-22.1,0-44,0-66.1c4.8,0,9.4,0,14.4,0c2.5,15,4.9,30,7.4,45.1c0.2,0,0.3,0,0.5,0c2.3-15,4.6-30,6.8-45.1c4.9,0,9.5,0,14.3,0
				c0,22,0,43.9,0,66.1c-3,0-6.2,0-9.6,0c0-14.3,0-28.8,0-43.3c-0.2,0-0.3,0-0.5,0C459.8-209.8,457.7-195.3,455.4-180.8z"/>
			<path class="st4" d="M197.9-207.3c0,8.7,0,17.5,0,26.5c-3.6,0-6.9,0-10.4,0c0-21.9,0-43.9,0-66.2c2.8,0,5.6,0,8.4,0
				c3.9,0.1,7.9,0,11.8,0.4c6,0.7,9.8,4.4,10.5,10.3c0.5,4.1,0.5,8.2,0.3,12.3c-0.2,4.5-2,8.4-6.3,10.8c5.3,3,6.4,7.9,6.5,13.2
				c0.1,6.4,0.2,12.7,0.3,19.2c-2.9,0-6.3,0-10.2,0c-0.2-2.8-0.5-5.6-0.6-8.4c-0.1-3.3,0-6.6,0-9.9
				C208.2-206.3,205.6-208.5,197.9-207.3z M198-237.2c0,6.7,0,13.2,0,20c1.3,0,2.5,0,3.7,0c4.4-0.2,6.1-1.8,6.3-6.2
				c0.1-1.8,0.1-3.6,0.1-5.3c0-8-1.4-9.3-9.5-8.8C198.5-237.5,198.4-237.3,198-237.2z"/>
			<path d="M340.7-213.7c0,6,0,12,0,18c-0.1,5.9-1.7,11.1-7.3,13.9c-6.1,3-12.4,2.9-18.3-0.7c-4.5-2.8-6-7.5-6-12.4
				c-0.2-12.6-0.2-25.2,0-37.7c0.1-5.8,2.1-11.1,7.9-13.5c6.3-2.7,12.7-2.6,18.4,1.6c3.9,2.9,5.2,7.3,5.2,11.9
				C340.8-226.3,340.7-220,340.7-213.7z M319.6-213.9c0,6.2,0,12.4,0,18.6c0,3.8,1.5,5.6,4.7,5.9c3.8,0.4,5.9-1.9,6-6.7
				c0-11.7,0-23.5,0-35.2c0-1.2-0.1-2.5-0.5-3.6c-0.6-2-2-3.1-4.1-3.2c-3.8-0.3-5.9,1.6-6,5.7C319.5-226.3,319.6-220.1,319.6-213.9z
				"/>
			<path d="M386.9-246.9c3.3,0,6.5,0,10.2,0c0,1.2,0,2.3,0,3.4c0,15.2,0,30.5,0,45.7c0,1.4,0.1,2.8,0.3,4.2c0.6,2.9,2.5,4.4,5.4,4.3
				c2.9-0.1,4.6-1.7,4.9-4.8c0.1-1,0.1-2.1,0.1-3.1c0-15.4,0-30.8,0-46.3c0-1,0-2.1,0-3.3c3.3,0,6.4,0,10,0c0,0.9,0,1.9,0,2.9
				c0,15.7,0,31.4,0,47.1c0,1.8-0.2,3.6-0.5,5.3c-1.4,7.9-7.5,12.4-16,11.7c-9.6-0.7-14.4-5.4-14.6-15.1
				c-0.3-16.8-0.1-33.6-0.2-50.5C386.7-245.8,386.8-246.3,386.9-246.9z"/>
			<path class="st4" d="M145.6-246.9c3.4,0,6.6,0,10.2,0c0,1.3,0,2.4,0,3.5c0,14.9,0,29.9,0,44.8c0,1.4,0.1,2.8,0.2,4.2
				c0.4,3.3,2,4.9,5,5c3.1,0.1,5-1.5,5.5-4.8c0.2-1,0.2-2.1,0.2-3.1c0-15.3,0-30.6,0-45.9c0-1.1,0-2.2,0-3.6c3.3,0,6.5,0,9.9,0
				c0,1,0,1.9,0,2.8c0,16,0.1,31.9-0.1,47.9c0,2.8-0.6,5.8-1.7,8.5c-2.1,5.4-7.6,8.2-14.3,7.9c-9.5-0.4-14.9-5.7-15-15.1
				c-0.2-17-0.1-34-0.1-51C145.4-246,145.5-246.3,145.6-246.9z"/>
			<path d="M291.7-246.9c3.3,0,6.2,0,9.6,0c-0.7,4.7-1.3,9.2-2,13.7c-2.6,16.7-5.2,33.4-7.7,50.1c-0.3,1.9-0.9,2.5-2.8,2.5
				c-4.3-0.1-8.6,0-13.3,0c-3.4-22-6.8-44-10.2-66.4c3.4,0,6.5-0.1,9.5,0.1c0.5,0,1.3,1.2,1.4,2c1.8,11.8,3.5,23.6,5.2,35.4
				c0.7,4.9,1.5,9.8,2.7,14.6C286.6-212.2,289.1-229.4,291.7-246.9z"/>
			<path class="st4" d="M106.5-246.6c6.8,0,13.3-0.4,19.8,0.1c5.9,0.5,10.1,5.2,10.5,11.5c0.4,5.8,0.5,11.6,0,17.4
				c-0.5,6.6-4.8,10.7-11.4,11.7c-2.8,0.4-5.6,0.4-8.7,0.6c0,8.1,0,16.2,0,24.5c-3.6,0-6.8,0-10.3,0
				C106.5-202.7,106.5-224.7,106.5-246.6z M116.9-237.5c0,7.5,0,14.8,0,22.4c1.7,0,3.3,0,4.9,0c3.1-0.1,4.8-1.4,4.9-4.6
				c0.2-4.4,0.2-8.8,0-13.2c-0.1-2.5-1.4-4.3-4.1-4.6C120.7-237.6,118.9-237.5,116.9-237.5z"/>
			<path d="M484-246.9c9.4,0,18.7,0,28.1,0c0,3.1,0,6.1,0,9.3c-5.9,0-11.7,0-17.7,0c0,6.2,0,12.2,0,18.4c4.7,0,9.3,0,14.1,0
				c0,3.3,0,6.3,0,9.6c-4.7,0-9.3,0-14,0c0,6.5,0,12.7,0,19.3c5.8,0,11.6,0,17.6,0c0,3.3,0,6.3,0,9.5c-9.3,0-18.6,0-28,0
				C484-202.7,484-224.7,484-246.9z"/>
			<path class="st4" d="M229.6-246.9c9.3,0,18.5,0,27.9,0c0,3,0,6,0,9.2c-5.6,0-11.4,0-17.4,0c0,6.3,0,12.4,0,18.6
				c4.6,0,9.1,0,13.8,0c0,3.1,0,6.1,0,9.4c-4.5,0-9,0-13.8,0c0,6.6,0,12.9,0,19.4c5.8,0,11.5,0,17.4,0c0,3.2,0,6.2,0,9.5
				c-9.2,0-18.5,0-27.9,0C229.6-202.7,229.6-224.7,229.6-246.9z"/>
			<path d="M361.6-190.2c6,0,11.5,0,17.2,0c0,3.2,0,6.1,0,9.3c-9,0-18.1,0-27.3,0c0-21.9,0-43.9,0-66c3.3,0,6.6,0,10.1,0
				C361.6-228,361.6-209.3,361.6-190.2z"/>
		</g>
		<rect x="528" y="-247" width="10" height="66"/>
		<rect x="544" y="-231" width="10" height="50"/>
		<rect x="560" y="-218" width="10" height="37"/>
		<rect x="575" y="-238" width="10" height="57"/>
		<rect x="589" y="-200" width="10" height="19"/>
		<rect x="81" y="-247" transform="matrix(-1 -4.492907e-11 4.492907e-11 -1 172 -428)" width="10" height="66"/>
		<rect x="65" y="-231" transform="matrix(-1 -4.483803e-11 4.483803e-11 -1 140 -412)" width="10" height="50"/>
		<rect x="49" y="-218" transform="matrix(-1 -4.483803e-11 4.483803e-11 -1 108 -399)" width="10" height="37"/>
		<rect x="34" y="-238" transform="matrix(-1 -4.492907e-11 4.492907e-11 -1 78 -419)" width="10" height="57"/>
		<rect x="20" y="-200" transform="matrix(-1 -4.492907e-11 4.492907e-11 -1 50 -381)" width="10" height="19"/>
	</g>
</g>
</svg>
